# MagicaVoxel @ ephtracy

# material
mtllib room1.mtl
usemtl palette

# normals
vn -1 0 0
vn 1 0 0
vn 0 0 1
vn 0 0 -1
vn 0 -1 0
vn 0 1 0

# texcoords
vt 0.306641 0.5
vt 0.966797 0.5
vt 0.978516 0.5
vt 0.990234 0.5

# verts
v -4.5 0 2.5
v -4.5 0 -6.5
v -4.5 5 2.5
v -4.5 5 -6.5
v -1.5 0 5.5
v -1.5 0 2.5
v -1.5 4 5.5
v -1.5 4 2.5
v 0.5 1 4.5
v 0.5 1 1.5
v 0.5 2 2.5
v 0.5 2 1.5
v 0.5 3 4.5
v 0.5 3 2.5
v 0.5 3 -5.5
v 0.5 3 -6.5
v 0.5 4 -5.5
v 0.5 4 -6.5
v 1.5 1 -2.5
v 1.5 1 -3.5
v 1.5 2 -2.5
v 1.5 2 -3.5
v 3.5 1 1.5
v 3.5 1 -2.5
v 3.5 2 -2.5
v 3.5 2 -3.5
v 3.5 3 -3.5
v 3.5 3 -5.5
v 3.5 5 1.5
v 3.5 5 -5.5
v -3.5 1 1.5
v -3.5 1 -2.5
v -3.5 2 -2.5
v -3.5 2 -3.5
v -3.5 3 -3.5
v -3.5 3 -5.5
v -3.5 5 1.5
v -3.5 5 -5.5
v -1.5 1 -2.5
v -1.5 1 -3.5
v -1.5 2 -2.5
v -1.5 2 -3.5
v -0.5 1 4.5
v -0.5 1 1.5
v -0.5 2 2.5
v -0.5 2 1.5
v -0.5 3 4.5
v -0.5 3 2.5
v -0.5 3 -5.5
v -0.5 3 -6.5
v -0.5 4 -5.5
v -0.5 4 -6.5
v 1.5 0 5.5
v 1.5 0 2.5
v 1.5 4 5.5
v 1.5 4 2.5
v 4.5 0 2.5
v 4.5 0 -6.5
v 4.5 5 2.5
v 4.5 5 -6.5
v -1.5 0 5.5
v -1.5 4 5.5
v 1.5 0 5.5
v 1.5 4 5.5
v -4.5 0 2.5
v -4.5 5 2.5
v -1.5 0 2.5
v -1.5 4 2.5
v -0.5 2 2.5
v -0.5 3 2.5
v 0.5 2 2.5
v 0.5 3 2.5
v 1.5 0 2.5
v 1.5 4 2.5
v 4.5 0 2.5
v 4.5 5 2.5
v -3.5 1 -2.5
v -3.5 2 -2.5
v -1.5 1 -2.5
v -1.5 2 -2.5
v 1.5 1 -2.5
v 1.5 2 -2.5
v 3.5 1 -2.5
v 3.5 2 -2.5
v -3.5 2 -3.5
v -3.5 3 -3.5
v -1.5 1 -3.5
v -1.5 2 -3.5
v 1.5 1 -3.5
v 1.5 2 -3.5
v 3.5 2 -3.5
v 3.5 3 -3.5
v -3.5 3 -5.5
v -3.5 5 -5.5
v -0.5 3 -5.5
v -0.5 4 -5.5
v 0.5 3 -5.5
v 0.5 4 -5.5
v 3.5 3 -5.5
v 3.5 5 -5.5
v -0.5 1 4.5
v -0.5 3 4.5
v 0.5 1 4.5
v 0.5 3 4.5
v -3.5 1 1.5
v -3.5 5 1.5
v -0.5 1 1.5
v -0.5 2 1.5
v 0.5 1 1.5
v 0.5 2 1.5
v 3.5 1 1.5
v 3.5 5 1.5
v -4.5 0 -6.5
v -4.5 5 -6.5
v -0.5 3 -6.5
v -0.5 4 -6.5
v 0.5 3 -6.5
v 0.5 4 -6.5
v 4.5 0 -6.5
v 4.5 5 -6.5
v -1.5 0 5.5
v 1.5 0 5.5
v -4.5 0 2.5
v -1.5 0 2.5
v 1.5 0 2.5
v 4.5 0 2.5
v -3.5 0 1.5
v 3.5 0 1.5
v -3.5 0 -5.5
v 3.5 0 -5.5
v -4.5 0 -6.5
v 4.5 0 -6.5
v -0.5 2 2.5
v 0.5 2 2.5
v -0.5 2 1.5
v 0.5 2 1.5
v -0.5 3 4.5
v 0.5 3 4.5
v -0.5 3 2.5
v 0.5 3 2.5
v -0.5 4 -5.5
v 0.5 4 -5.5
v -0.5 4 -6.5
v 0.5 4 -6.5
v -0.5 1 4.5
v 0.5 1 4.5
v -3.5 1 1.5
v -0.5 1 1.5
v 0.5 1 1.5
v 3.5 1 1.5
v -3.5 1 -2.5
v -1.5 1 -2.5
v 1.5 1 -2.5
v 3.5 1 -2.5
v -1.5 1 -3.5
v 1.5 1 -3.5
v -3.5 2 -2.5
v -1.5 2 -2.5
v 1.5 2 -2.5
v 3.5 2 -2.5
v -3.5 2 -3.5
v -1.5 2 -3.5
v 1.5 2 -3.5
v 3.5 2 -3.5
v -3.5 3 -3.5
v 3.5 3 -3.5
v -3.5 3 -5.5
v -0.5 3 -5.5
v 0.5 3 -5.5
v 3.5 3 -5.5
v -0.5 3 -6.5
v 0.5 3 -6.5
v -1.5 4 5.5
v 1.5 4 5.5
v -1.5 4 2.5
v 1.5 4 2.5
v -4.5 5 2.5
v 4.5 5 2.5
v -3.5 5 1.5
v 3.5 5 1.5
v -3.5 5 -5.5
v 3.5 5 -5.5
v -4.5 5 -6.5
v 4.5 5 -6.5

# faces
f 3/3/1 2/3/1 1/3/1
f 4/3/1 2/3/1 3/3/1
f 7/3/1 6/3/1 5/3/1
f 8/3/1 6/3/1 7/3/1
f 11/3/1 10/3/1 9/3/1
f 12/3/1 10/3/1 11/3/1
f 13/3/1 11/3/1 9/3/1
f 14/3/1 11/3/1 13/3/1
f 17/3/1 16/3/1 15/3/1
f 18/3/1 16/3/1 17/3/1
f 21/2/1 20/2/1 19/2/1
f 22/2/1 20/2/1 21/2/1
f 25/3/1 24/3/1 23/3/1
f 27/3/1 26/3/1 25/3/1
f 29/3/1 25/3/1 23/3/1
f 29/3/1 28/3/1 27/3/1
f 29/3/1 27/3/1 25/3/1
f 30/3/1 28/3/1 29/3/1
f 31/3/2 32/3/2 33/3/2
f 33/3/2 34/3/2 35/3/2
f 31/3/2 33/3/2 37/3/2
f 35/3/2 36/3/2 37/3/2
f 33/3/2 35/3/2 37/3/2
f 37/3/2 36/3/2 38/3/2
f 39/2/2 40/2/2 41/2/2
f 41/2/2 40/2/2 42/2/2
f 43/3/2 44/3/2 45/3/2
f 45/3/2 44/3/2 46/3/2
f 43/3/2 45/3/2 47/3/2
f 47/3/2 45/3/2 48/3/2
f 49/3/2 50/3/2 51/3/2
f 51/3/2 50/3/2 52/3/2
f 53/3/2 54/3/2 55/3/2
f 55/3/2 54/3/2 56/3/2
f 57/3/2 58/3/2 59/3/2
f 59/3/2 58/3/2 60/3/2
f 63/3/3 62/3/3 61/3/3
f 64/3/3 62/3/3 63/3/3
f 67/3/3 66/3/3 65/3/3
f 68/3/3 66/3/3 67/3/3
f 71/3/3 70/3/3 69/3/3
f 72/3/3 70/3/3 71/3/3
f 74/3/3 66/3/3 68/3/3
f 75/3/3 74/3/3 73/3/3
f 76/3/3 66/3/3 74/3/3
f 76/3/3 74/3/3 75/3/3
f 79/2/3 78/2/3 77/2/3
f 80/2/3 78/2/3 79/2/3
f 83/2/3 82/2/3 81/2/3
f 84/2/3 82/2/3 83/2/3
f 88/4/3 86/4/3 85/4/3
f 89/4/3 88/4/3 87/4/3
f 90/4/3 86/4/3 88/4/3
f 90/4/3 88/4/3 89/4/3
f 91/4/3 86/4/3 90/4/3
f 92/4/3 86/4/3 91/4/3
f 95/3/3 94/3/3 93/3/3
f 96/3/3 94/3/3 95/3/3
f 98/3/3 94/3/3 96/3/3
f 99/3/3 98/3/3 97/3/3
f 100/3/3 94/3/3 98/3/3
f 100/3/3 98/3/3 99/3/3
f 101/3/4 102/3/4 103/3/4
f 103/3/4 102/3/4 104/3/4
f 105/3/4 106/3/4 107/3/4
f 107/3/4 106/3/4 108/3/4
f 108/3/4 106/3/4 110/3/4
f 109/3/4 110/3/4 111/3/4
f 110/3/4 106/3/4 112/3/4
f 111/3/4 110/3/4 112/3/4
f 113/3/4 114/3/4 115/3/4
f 115/3/4 114/3/4 116/3/4
f 113/3/4 115/3/4 117/3/4
f 116/3/4 114/3/4 118/3/4
f 113/3/4 117/3/4 119/3/4
f 117/3/4 118/3/4 119/3/4
f 118/3/4 114/3/4 120/3/4
f 119/3/4 118/3/4 120/3/4
f 124/3/5 122/3/5 121/3/5
f 125/3/5 122/3/5 124/3/5
f 127/3/5 124/3/5 123/3/5
f 127/3/5 126/3/5 125/3/5
f 127/3/5 125/3/5 124/3/5
f 128/3/5 126/3/5 127/3/5
f 129/3/5 127/3/5 123/3/5
f 129/4/5 128/4/5 127/4/5
f 130/3/5 126/3/5 128/3/5
f 130/4/5 128/4/5 129/4/5
f 131/3/5 129/3/5 123/3/5
f 131/3/5 130/3/5 129/3/5
f 132/3/5 126/3/5 130/3/5
f 132/3/5 130/3/5 131/3/5
f 135/3/5 134/3/5 133/3/5
f 136/3/5 134/3/5 135/3/5
f 139/3/5 138/3/5 137/3/5
f 140/3/5 138/3/5 139/3/5
f 143/3/5 142/3/5 141/3/5
f 144/3/5 142/3/5 143/3/5
f 145/3/6 146/3/6 148/3/6
f 148/3/6 146/3/6 149/3/6
f 147/4/6 148/4/6 151/4/6
f 149/4/6 150/4/6 151/4/6
f 148/4/6 149/4/6 151/4/6
f 151/4/6 150/4/6 152/4/6
f 152/4/6 150/4/6 153/4/6
f 153/4/6 150/4/6 154/4/6
f 152/4/6 153/4/6 155/4/6
f 155/4/6 153/4/6 156/4/6
f 157/2/6 158/2/6 161/2/6
f 161/2/6 158/2/6 162/2/6
f 159/2/6 160/2/6 163/2/6
f 163/2/6 160/2/6 164/2/6
f 165/4/6 166/4/6 167/4/6
f 167/4/6 166/4/6 168/4/6
f 168/4/6 166/4/6 169/4/6
f 169/4/6 166/4/6 170/4/6
f 168/3/6 169/3/6 171/3/6
f 171/3/6 169/3/6 172/3/6
f 173/3/6 174/3/6 175/3/6
f 175/3/6 174/3/6 176/3/6
f 177/3/6 178/3/6 179/3/6
f 179/3/6 178/3/6 180/3/6
f 177/3/6 179/3/6 181/3/6
f 180/3/6 178/3/6 182/3/6
f 177/3/6 181/3/6 183/3/6
f 181/3/6 182/3/6 183/3/6
f 182/3/6 178/3/6 184/3/6
f 183/3/6 182/3/6 184/3/6
